<?xml version="1.0" encoding="UTF-8" standalone="no"?>
<!-- Created with Inkscape (http://www.inkscape.org/) -->

<svg
   xmlns:dc="http://purl.org/dc/elements/1.1/"
   xmlns:cc="http://creativecommons.org/ns#"
   xmlns:rdf="http://www.w3.org/1999/02/22-rdf-syntax-ns#"
   xmlns:svg="http://www.w3.org/2000/svg"
   xmlns="http://www.w3.org/2000/svg"
   xmlns:sodipodi="http://sodipodi.sourceforge.net/DTD/sodipodi-0.dtd"
   xmlns:inkscape="http://www.inkscape.org/namespaces/inkscape"
   id="svg2"
   version="1.1"
   inkscape:version="0.91 r13725"
   width="169.42773"
   height="133.76562"
   viewBox="0 0 169.42774 133.76562"
   sodipodi:docname="html2epub.svg">
  <metadata
     id="metadata8">
    <rdf:RDF>
      <cc:Work
         rdf:about="">
        <dc:format>image/svg+xml</dc:format>
        <dc:type
           rdf:resource="http://purl.org/dc/dcmitype/StillImage" />
        <dc:title></dc:title>
      </cc:Work>
    </rdf:RDF>
  </metadata>
  <defs
     id="defs6" />
  <sodipodi:namedview
     pagecolor="#ffffff"
     bordercolor="#666666"
     borderopacity="1"
     objecttolerance="10"
     gridtolerance="10"
     guidetolerance="10"
     inkscape:pageopacity="0"
     inkscape:pageshadow="2"
     inkscape:window-width="1600"
     inkscape:window-height="824"
     id="namedview4"
     showgrid="false"
     showguides="true"
     inkscape:guide-bbox="true"
     inkscape:zoom="1.2237803"
     inkscape:cx="59.091947"
     inkscape:cy="30.764367"
     inkscape:window-x="0"
     inkscape:window-y="24"
     inkscape:window-maximized="1"
     inkscape:current-layer="svg2"
     fit-margin-top="0"
     fit-margin-left="0"
     fit-margin-right="0"
     fit-margin-bottom="0" />
  <path
     style="font-style:normal;font-variant:normal;font-weight:normal;font-stretch:condensed;font-size:medium;line-height:125%;font-family:Impact;-inkscape-font-specification:'Impact Condensed';letter-spacing:0px;word-spacing:0px;fill:#000000;fill-opacity:1;stroke:none;stroke-width:1px;stroke-linecap:butt;stroke-linejoin:miter;stroke-opacity:1"
     d="m 0,0 0,64.923828 16.882812,0 0,-27.269531 5.052735,0 0,27.269531 16.882812,0 0,-64.923828 -16.882812,0 0,23.21875 -5.052735,0 L 16.882812,0 0,0 Z m 42.667968,0 0,12.992187 9.984375,0 0,38.794922 16.882816,-16.882812 0,-21.91211 10.02539,0 0,-12.992187 -36.892581,0 z m 40.742191,0 0,25.570312 14.75781,14.757813 0,-18.232422 3.093751,21.326172 14.52539,14.52539 4.95703,-36.853515 0,41.808594 2.02149,2.021484 12.73632,0 0,-64.923828 -22.01562,0 -3.84961,30.316406 -2.32617,-16.521484 C 106.58871,8.501512 105.90725,3.903221 105.26563,0 L 83.410159,0 Z m 58.869141,0 0,64.923828 27.14844,0 0,-12.992187 -10.26563,0 L 159.16211,0 142.2793,0 Z M 0,67.476562 l 0,64.925778 30.605468,0 0,-12.99414 -13.722656,0 0,-14.27539 11.878906,0 0,-12.351557 -11.878906,0 0,-12.31055 12.599609,0 0,-12.994141 -29.482421,0 z m 37.630859,0 0,64.925778 16.882812,0 0,-26.14648 4.53125,0 c 3.689347,0 6.670937,-0.50948 8.94336,-1.52539 2.299158,-1.01591 3.874968,-2.47296 4.730468,-4.3711 0.0728,-0.16146 0.1385,-0.34182 0.20508,-0.519527 l -13.037111,-13.03711 0,2.44922 c 0,2.40609 -0.306984,3.99618 -0.921875,4.77148 -0.588157,0.74856 -1.65839,1.12305 -3.208984,1.12305 -0.347547,0 -0.760969,-0.0124 -1.242188,-0.0391 l 0,-13.677736 -13.953124,-13.953125 -2.929688,0 z m 92.267581,0 0,64.925778 19.5293,0 c 6.79053,0 11.28238,-0.38876 13.4746,-1.16406 2.19222,-0.7753 3.78232,-2.21807 4.77149,-4.33008 1.01591,-2.11202 1.52539,-5.36165 1.52539,-9.74609 l 0,-6.01368 c 0,-4.22403 -0.69575,-7.35295 -2.08594,-9.38476 -1.39018,-2.058547 -4.03623,-3.527927 -7.93945,-4.410157 3.5022,-0.80203 5.84127,-1.9521 7.01758,-3.44922 1.20305,-1.49713 1.80468,-4.14511 1.80468,-7.9414 0,-5.61422 -0.84307,-9.676423 -2.52734,-12.189456 -1.68426,-2.539767 -3.90261,-4.223968 -6.65625,-5.052734 -2.7269,-0.828766 -6.75016,-1.244141 -12.07031,-1.244141 l -16.84375,0 z m -8.40235,0.22461 -16.88281,16.882811 0,30.734377 c 0,3.23486 -0.15966,5.29354 -0.48047,6.17578 -0.29408,0.8555 -0.97555,1.2832 -2.04492,1.2832 -0.93571,0 -1.56395,-0.38876 -1.88476,-1.16406 -0.294081,-0.80203 -0.441411,-2.61928 -0.441411,-5.45313 l 0,-26.726557 -16.88086,16.880857 c 0.005,7.06926 0.13668,11.7645 0.39844,14.01563 0.26734,2.27242 1.13702,4.43949 2.60742,6.49804 1.47038,2.05855 3.68873,3.72847 6.65625,5.01172 2.96751,1.28325 6.38913,1.92578 10.265621,1.92578 3.5022,0 6.53702,-0.5361 9.10352,-1.60547 2.59324,-1.09611 4.67853,-2.6862 6.25586,-4.77148 1.57732,-2.11202 2.52684,-4.15643 2.84766,-6.13477 0.32081,-2.00508 0.48046,-5.46759 0.48046,-10.38672 l 0,-43.166008 z m 25.28516,10.884765 c 1.73774,0.02674 2.90208,0.1455 3.49023,0.359375 0.6149,0.213875 1.10815,0.735687 1.48243,1.564453 0.37428,0.802032 0.5625,2.220144 0.5625,4.251958 0,3.84975 -0.22716,6.1888 -0.68164,7.01757 -0.45448,0.80203 -1.51043,1.20313 -3.16797,1.20313 -0.40101,0 -0.96372,0.0124 -1.68555,0.0391 l 0,-14.435546 z m 0,24.541013 c 2.51304,0.0802 4.06419,0.41379 4.65234,1.00195 0.58816,0.58815 0.88282,2.27431 0.88282,5.05469 l 0,6.05469 c 0,2.61997 -0.33555,4.26328 -1.00391,4.93164 -0.64162,0.66836 -2.15189,1.04285 -4.53125,1.12305 l 0,-18.16602 z"
     id="path4166"
     inkscape:connector-curvature="0" />
  <text
     xml:space="preserve"
     style="font-style:normal;font-weight:normal;font-size:40px;line-height:125%;font-family:sans-serif;letter-spacing:0px;word-spacing:0px;fill:#2846ff;fill-opacity:1;stroke:none;stroke-width:1px;stroke-linecap:butt;stroke-linejoin:miter;stroke-opacity:1"
     x="60.004974"
     y="84.392311"
     id="text4176"
     sodipodi:linespacing="125%"><tspan
       sodipodi:role="line"
       id="tspan4178"
       x="60.004974"
       y="84.392311"
       style="font-style:normal;font-variant:normal;font-weight:bold;font-stretch:normal;font-size:56.25px;font-family:Verdana;-inkscape-font-specification:'Verdana Bold';fill:#2846ff;fill-opacity:1">2</tspan></text>
</svg>
